<svg width="43" height="43" viewBox="0 0 43 43" fill="none" xmlns="http://www.w3.org/2000/svg">
<g clip-path="url(#clip0_34_54)">
<path d="M15.5874 28.4875L8.59995 21.5L15.5874 14.5125C16.2862 13.8137 16.2862 12.7029 15.5874 12.0042C14.8887 11.3054 13.7779 11.3054 13.0791 12.0042L4.85536 20.2279C4.15661 20.9267 4.15661 22.0554 4.85536 22.7542L13.0791 30.9958C13.7779 31.6946 14.8887 31.6946 15.5874 30.9958C16.2862 30.2971 16.2862 29.1862 15.5874 28.4875V28.4875ZM27.4124 28.4875L34.3999 21.5L27.4124 14.5125C26.7137 13.8137 26.7137 12.7029 27.4124 12.0042C28.1112 11.3054 29.222 11.3054 29.9208 12.0042L38.1445 20.2279C38.8433 20.9267 38.8433 22.0554 38.1445 22.7542L29.9208 30.9958C29.222 31.6946 28.1112 31.6946 27.4124 30.9958C26.7137 30.2971 26.7137 29.1862 27.4124 28.4875V28.4875Z" fill="white"/>
</g>
<defs>
<clipPath id="clip0_34_54">
<rect width="43" height="43" fill="white"/>
</clipPath>
</defs>
</svg>
